<svg width="29" height="29" viewBox="0 0 29 29" fill="none" xmlns="http://www.w3.org/2000/svg">
<path fill-rule="evenodd" clip-rule="evenodd" d="M14.1844 2.41669C20.6732 2.41669 25.9512 7.69469 25.9512 14.1834C25.9512 17.2448 24.7763 20.0369 22.8538 22.1325L26.6368 25.9075C26.9908 26.2616 26.992 26.8343 26.638 27.1884C26.4616 27.3672 26.2283 27.4554 25.9963 27.4554C25.7656 27.4554 25.5336 27.3672 25.3559 27.1908L21.5273 23.3728C19.5132 24.9857 16.9596 25.9514 14.1844 25.9514C7.69565 25.9514 2.41644 20.6722 2.41644 14.1834C2.41644 7.69469 7.69565 2.41669 14.1844 2.41669ZM14.1844 4.22919C8.69494 4.22919 4.22894 8.69398 4.22894 14.1834C4.22894 19.6729 8.69494 24.1389 14.1844 24.1389C19.6727 24.1389 24.1387 19.6729 24.1387 14.1834C24.1387 8.69398 19.6727 4.22919 14.1844 4.22919Z" fill="#202020"/>
</svg>
